Coordinates
version=1
nRows=7
nColumns=40
inDegrees=yes

Units are S.I. units (second, meters, Newtons, ...)
Angles are in degrees.

endheader
time	pelvis_tilt	pelvis_list	pelvis_rotation	pelvis_tx	pelvis_ty	pelvis_tz	hip_flexion_r	hip_adduction_r	hip_rotation_r	knee_angle_r	knee_angle_r_beta	ankle_angle_r	subtalar_angle_r	mtp_angle_r	hip_flexion_l	hip_adduction_l	hip_rotation_l	knee_angle_l	knee_angle_l_beta	ankle_angle_l	subtalar_angle_l	mtp_angle_l	lumbar_extension	lumbar_bending	lumbar_rotation	arm_flex_r	arm_add_r	arm_rot_r	elbow_flex_r	pro_sup_r	wrist_flex_r	wrist_dev_r	arm_flex_l	arm_add_l	arm_rot_l	elbow_flex_l	pro_sup_l	wrist_flex_l	wrist_dev_l
     35.64250000	     -4.48300112	     -5.35476389	     -1.24269472	      1.07542979	      0.90994887	      0.39094266	     30.51363241	     -6.54290492	      0.34728285	     68.41507397	     68.41507397	      3.70722159	     -9.40975808	     -1.19053082	     21.87024595	     -2.53393489	     -0.52706079	     35.85654113	     35.85654113	     20.80639713	    -17.07158387	      7.58711655	    -12.29907829	      6.71301632	      1.37184125	     -5.48519950	    -11.36679373	    -14.02197335	     24.33730949	     46.71188739	      0.00000000	      0.00000000	     37.74736605	    -20.69445871	      4.80250115	     46.67191163	     47.17908605	      0.00000000	      0.00000000
     35.66557143	     -4.53513614	     -5.44851332	     -2.09688543	      1.07459643	      0.91154324	      0.39048869	     31.95670684	     -6.10095858	      0.70642160	     67.10460640	     67.10460640	      3.87149272	     -9.78013190	     -1.22749272	     21.10589595	     -2.74881870	     -1.13900673	     35.05820520	     35.05820520	     20.86212080	    -17.15755193	      7.78989502	    -12.28259767	      6.88739568	      0.81478624	     -8.48021728	    -11.19156893	    -14.03103521	     23.39497010	     46.72465965	      0.00000000	      0.00000000	     39.36783780	    -22.01633891	      4.20143999	     47.38656560	     47.25735902	      0.00000000	      0.00000000
     35.68864286	     -4.59941301	     -5.54427794	     -3.10111753	      1.07388054	      0.91355633	      0.39048916	     32.80051637	     -5.57149052	      1.00768537	     64.30199178	     64.30199178	      2.89702707	    -10.92830117	     -5.33128560	     20.20776700	     -3.04387953	     -1.99508977	     34.04067618	     34.04067618	     20.71660288	    -17.23347255	      7.66493093	    -12.37543184	      7.09407078	      0.97469817	    -12.43154829	    -11.19518408	    -13.10815085	     25.35546951	     46.51322919	      0.00000000	      0.00000000	     40.57850939	    -22.21627405	      1.42426895	     49.63245797	     47.49920265	      0.00000000	      0.00000000
     35.71171429	     -4.74452774	     -5.61237544	     -4.14735788	      1.07320054	      0.91578170	      0.39092756	     33.37431374	     -5.16080109	      1.01373616	     60.70943994	     60.70943994	      3.42983223	    -10.90034487	     -5.53717821	     19.29316258	     -3.33413458	     -2.94286079	     32.84742183	     32.84742183	     20.62225939	    -17.21844194	      7.94168386	    -12.25651864	      7.18916948	      0.85477142	    -14.84163630	    -11.08229765	    -13.04751699	     24.75919473	     46.51145443	      0.00000000	      0.00000000	     41.96792166	    -23.11809686	      0.91055572	     50.59208752	     47.56280934	      0.00000000	      0.00000000
     35.73478571	     -5.06260080	     -5.67100371	     -5.23211025	      1.07233985	      0.91782213	      0.39173094	     33.71456039	     -4.74755326	      0.88252519	     56.21726043	     56.21726043	      3.90718988	    -10.39847319	     -5.74059412	     18.54868234	     -3.62178433	     -3.83095131	     31.62990855	     31.62990855	     20.52352901	    -17.07811956	      8.13383271	    -12.00696682	      7.29826824	      0.85288523	    -16.92522010	    -10.98390453	    -13.03354622	     24.45919181	     46.50282265	      0.00000000	      0.00000000	     43.19097740	    -23.95827542	      0.35146002	     51.57495791	     47.62909960	      0.00000000	      0.00000000
     35.75785714	     -5.30182184	     -5.68996072	     -6.35432167	      1.07162779	      0.91987991	      0.39282722	     33.33806701	     -4.41092581	      0.54528772	     50.52760040	     50.52760040	      2.87002463	    -10.21311403	     -9.90376109	     17.63536664	     -3.89777871	     -4.92719025	     30.25248479	     30.25248479	     19.95722701	    -17.05271455	      7.24366287	    -11.96333223	      7.36081291	      1.11582960	    -19.83838465	    -10.93391675	    -12.58288979	     27.33734630	     46.30325245	      0.00000000	      0.00000000	     43.65525116	    -24.22652030	     -2.21971888	     54.81929666	     47.85453364	      0.00000000	      0.00000000
     35.78092857	     -5.60965867	     -5.68372493	     -7.40144378	      1.07093666	      0.92177382	      0.39422214	     32.75004011	     -4.05197305	      0.12348361	     44.58965412	     44.58965412	      3.08294423	     -8.62828473	     -9.34059059	     16.82179971	     -4.12148649	     -5.92354862	     28.94108850	     28.94108850	     19.83153393	    -16.83240455	      7.47692024	    -11.67342069	      7.37139688	      1.09885709	    -21.02741568	    -10.85077600	    -12.44945194	     27.10621118	     46.29189922	      0.00000000	      0.00000000	     44.76403052	    -24.94533582	     -2.54783710	     55.37639422	     47.89495048	      0.00000000	      0.00000000
